External Loads File
version=1
nRows=78
nColumns=13
Range=5.000000e-03-10 seconds
endheader
time 	forceRightX 	forceRightY 	forceRightZ 	pointRightX 	pointRightY 	pointRightZ 	forceLeftX 	forceLeftY 	forceLeftZ 	pointLeftX 	pointLeftY 	pointLeftZ 		
0.005000 22.075547 187.404288 -0.000000 0.172415 0.169504 -0.164838 -4.188355 123.896435 -0.000000 0.324489 0.468131 -0.415185
0.010000 22.087228 187.115009 -0.000000 0.172401 0.169513 -0.164839 -5.177336 122.013179 -0.000000 0.324501 0.468138 -0.415185
0.015000 22.124868 186.878590 -0.000000 0.172385 0.169525 -0.164838 -6.099878 120.242446 -0.000000 0.324515 0.468128 -0.415192
0.020000 22.185412 186.703688 -0.000000 0.172359 0.169546 -0.164831 -6.886929 118.722403 -0.000000 0.324536 0.468117 -0.415178
0.025000 22.227786 186.590866 -0.000000 0.172405 0.169576 -0.164892 -7.530867 117.527256 -0.000000 0.324560 0.468092 -0.415220
0.030000 22.310038 186.522753 -0.000000 0.172380 0.169604 -0.164921 -8.007945 116.640419 -0.000000 0.324565 0.468024 -0.415229
0.035000 22.371131 186.491710 -0.000000 0.172372 0.169596 -0.164919 -8.397031 115.976465 -0.000000 0.324592 0.468022 -0.415226
0.040000 22.438505 186.470820 -0.000000 0.172338 0.169617 -0.164925 -8.720185 115.453812 -0.000000 0.324601 0.468012 -0.415229
0.045000 22.474020 186.443701 -0.000000 0.172337 0.169610 -0.164923 -9.016540 115.044892 -0.000000 0.324620 0.468006 -0.415229
0.050000 22.507498 186.406366 -0.000000 0.172319 0.169619 -0.164931 -9.258254 114.787159 -0.000000 0.324631 0.468005 -0.415220
0.055000 22.534574 186.375660 -0.000000 0.172316 0.169606 -0.164930 -9.438151 114.707777 -0.000000 0.324640 0.468000 -0.415228
0.060000 22.560940 186.368246 -0.000000 0.172322 0.169599 -0.164937 -9.567673 114.749824 -0.000000 0.324638 0.468038 -0.415236
0.065000 22.637423 186.384354 -0.000000 0.172331 0.169602 -0.164929 -9.646432 114.799452 -0.000000 0.324639 0.468000 -0.415238
0.070000 22.709639 186.422869 -0.000000 0.172348 0.169592 -0.164929 -9.722437 114.775060 -0.000000 0.324639 0.468064 -0.415235
0.075000 22.837934 186.464238 -0.000000 0.172371 0.169591 -0.164931 -9.753079 114.671901 -0.000000 0.324631 0.467995 -0.415242
0.080000 22.966245 186.504181 -0.000000 0.172378 0.169585 -0.164927 -9.770324 114.501260 -0.000000 0.324616 0.467996 -0.415247
0.085000 23.072884 186.533896 -0.000000 0.172409 0.169583 -0.164926 -9.786145 114.269673 -0.000000 0.324609 0.467998 -0.415244
0.090000 23.113469 186.549345 -0.000000 0.172421 0.169564 -0.164930 -9.806684 113.994014 -0.000000 0.324596 0.468000 -0.415234
0.095000 23.044752 186.546380 -0.000000 0.172428 0.169571 -0.164930 -9.820915 113.720619 -0.000000 0.324582 0.468007 -0.415235
0.100000 22.848417 186.517851 -0.000000 0.172452 0.169559 -0.164926 -9.812202 113.526964 -0.000000 0.324577 0.468009 -0.415247
0.105000 22.581156 186.461868 -0.000000 0.172470 0.169564 -0.164932 -9.751856 113.484896 -0.000000 0.324567 0.468009 -0.415249
0.110000 22.296530 186.394317 -0.000000 0.172479 0.169553 -0.164946 -9.655820 113.588490 -0.000000 0.324559 0.468018 -0.415241
0.115000 22.045866 186.324121 -0.000000 0.172487 0.169546 -0.164934 -9.557189 113.759843 -0.000000 0.324560 0.468012 -0.415242
0.120000 21.843601 186.236978 -0.000000 0.172479 0.169544 -0.164929 -9.474645 113.939341 -0.000000 0.324561 0.468016 -0.415245
0.125000 21.692885 186.103327 -0.000000 0.172472 0.169550 -0.164930 -9.390536 114.119441 -0.000000 0.324569 0.468010 -0.415238
0.130000 21.581682 185.913832 -0.000000 0.172462 0.169570 -0.164935 -9.307396 114.274292 -0.000000 0.324576 0.468018 -0.415240
0.135000 21.511528 185.699049 -0.000000 0.172446 0.169566 -0.164938 -9.257194 114.328410 -0.000000 0.324585 0.468014 -0.415233
0.140000 21.488552 185.514331 -0.000000 0.172431 0.169591 -0.164933 -9.272585 114.221999 -0.000000 0.324590 0.468013 -0.415231
0.145000 21.510659 185.406295 -0.000000 0.172414 0.169595 -0.164938 -9.357857 113.974016 -0.000000 0.324607 0.468013 -0.415236
0.150000 21.572377 185.393470 -0.000000 0.172388 0.169603 -0.164948 -9.481770 113.678076 -0.000000 0.324616 0.468004 -0.415232
0.155000 21.654229 185.476088 -0.000000 0.172377 0.169614 -0.164942 -9.611932 113.441482 -0.000000 0.324642 0.468044 -0.415239
0.160000 21.787210 185.644159 -0.000000 0.172354 0.169630 -0.164944 -9.716903 113.302391 -0.000000 0.324646 0.467992 -0.415236
0.165000 21.932472 185.890030 -0.000000 0.172342 0.169618 -0.164947 -9.839951 113.208549 -0.000000 0.324659 0.467981 -0.415244
0.170000 22.099113 186.188327 -0.000000 0.172328 0.169646 -0.164943 -9.976441 113.119438 -0.000000 0.324659 0.467978 -0.415250
0.175000 22.259351 186.513261 -0.000000 0.172313 0.169630 -0.164947 -10.107324 113.061660 -0.000000 0.324668 0.468006 -0.415249
0.180000 22.438800 186.836834 -0.000000 0.172296 0.169642 -0.164940 -10.184803 113.078212 -0.000000 0.324682 0.468002 -0.415258
0.185000 22.616901 187.139604 -0.000000 0.172282 0.169653 -0.164953 -10.214895 113.172435 -0.000000 0.324687 0.467940 -0.415258
0.190000 22.737193 187.407193 -0.000000 0.172292 0.169649 -0.164945 -10.228436 113.330079 -0.000000 0.324683 0.467944 -0.415261
0.195000 22.836425 187.614116 -0.000000 0.172280 0.169654 -0.164941 -10.179004 113.565429 -0.000000 0.324679 0.467937 -0.415259
0.200000 22.878951 187.740317 -0.000000 0.172281 0.169655 -0.164946 -10.042100 113.921691 -0.000000 0.324676 0.467929 -0.415261
0.205000 22.840505 187.764521 -0.000000 0.172284 0.169648 -0.164953 -9.799413 114.430001 -0.000000 0.324674 0.467994 -0.415263
0.210000 22.783515 187.672518 -0.000000 0.172293 0.169652 -0.164932 -9.442180 115.041233 -0.000000 0.324672 0.467931 -0.415259
0.215000 22.662814 187.491003 -0.000000 0.172299 0.169639 -0.164952 -9.079746 115.627536 -0.000000 0.324669 0.467937 -0.415257
0.220000 22.503794 187.250800 -0.000000 0.172302 0.169637 -0.164949 -8.763958 116.094861 -0.000000 0.324656 0.467940 -0.415262
0.225000 22.318974 186.974783 -0.000000 0.172290 0.169639 -0.164940 -8.518770 116.411043 -0.000000 0.324652 0.467935 -0.415268
0.230000 22.069547 186.683116 -0.000000 0.172305 0.169641 -0.164929 -8.405804 116.537379 -0.000000 0.324652 0.467996 -0.415261
0.235000 21.844080 186.389701 -0.000000 0.172301 0.169637 -0.164942 -8.418423 116.433925 -0.000000 0.324649 0.467943 -0.415255
0.240000 21.639072 186.127406 -0.000000 0.172305 0.169652 -0.164940 -8.568714 116.126274 -0.000000 0.324657 0.467941 -0.415252
0.245000 21.494123 185.917170 -0.000000 0.172303 0.169645 -0.164938 -8.786410 115.727166 -0.000000 0.324664 0.467933 -0.415254
0.250000 21.442916 185.778262 -0.000000 0.172287 0.169645 -0.164933 -8.997670 115.354224 -0.000000 0.324665 0.467933 -0.415256
0.255000 21.510131 185.734529 -0.000000 0.172286 0.169657 -0.164932 -9.171974 115.048586 -0.000000 0.324673 0.467924 -0.415253
0.260000 21.703779 185.791449 -0.000000 0.172283 0.169663 -0.164930 -9.309588 114.787727 -0.000000 0.324681 0.467922 -0.415247
0.265000 22.013447 185.912036 -0.000000 0.172267 0.169668 -0.164925 -9.395750 114.565696 -0.000000 0.324696 0.467922 -0.415251
0.270000 22.385019 186.038601 -0.000000 0.172247 0.169695 -0.164935 -9.419682 114.404352 -0.000000 0.324696 0.467911 -0.415254
0.275000 22.755699 186.133879 -0.000000 0.172242 0.169688 -0.164933 -9.401632 114.290351 -0.000000 0.324708 0.467900 -0.415250
0.280000 23.112256 186.191712 -0.000000 0.172218 0.169704 -0.164931 -9.364621 114.173386 -0.000000 0.324720 0.467906 -0.415242
0.285000 23.409367 186.221837 -0.000000 0.172203 0.169720 -0.164941 -9.342525 114.028656 -0.000000 0.324730 0.467897 -0.415245
0.290000 23.599326 186.218440 -0.000000 0.172196 0.169718 -0.164941 -9.339506 113.890208 -0.000000 0.324736 0.467892 -0.415255
0.295000 23.637844 186.171196 -0.000000 0.172198 0.169729 -0.164936 -9.343785 113.828526 -0.000000 0.324739 0.467957 -0.415259
0.300000 23.570142 186.088534 -0.000000 0.172199 0.169718 -0.164933 -9.306342 113.902917 -0.000000 0.324740 0.467896 -0.415255
0.305000 23.388645 186.021043 -0.000000 0.172226 0.169720 -0.164949 -9.254524 114.092403 -0.000000 0.324751 0.467892 -0.415254
0.310000 23.177586 186.016145 -0.000000 0.172207 0.169713 -0.164933 -9.198413 114.304182 -0.000000 0.324743 0.467895 -0.415257
0.315000 22.979513 186.107131 -0.000000 0.172206 0.169713 -0.164939 -9.169686 114.452186 -0.000000 0.324748 0.467889 -0.415255
0.320000 22.797538 186.297108 -0.000000 0.172237 0.169699 -0.164943 -9.197025 114.503830 -0.000000 0.324735 0.467897 -0.415259
0.325000 22.694402 186.548126 -0.000000 0.172265 0.169705 -0.164937 -9.266168 114.436398 -0.000000 0.324735 0.467890 -0.415252
0.330000 22.643724 186.813786 -0.000000 0.172269 0.169658 -0.164934 -9.420388 114.200846 -0.000000 0.324737 0.467892 -0.415249
0.335000 22.644875 187.035495 -0.000000 0.172270 0.169672 -0.164933 -9.663175 113.777011 -0.000000 0.324735 0.467900 -0.415250
0.340000 22.641095 187.167418 -0.000000 0.172285 0.169644 -0.164931 -9.985273 113.220536 -0.000000 0.324727 0.467914 -0.415248
0.345000 22.651901 187.185703 -0.000000 0.172298 0.169654 -0.164936 -10.290980 112.662774 -0.000000 0.324721 0.467920 -0.415243
0.350000 22.649338 187.104768 -0.000000 0.172315 0.169639 -0.164923 -10.507954 112.238200 -0.000000 0.324712 0.467914 -0.415238
0.355000 22.628237 186.944810 -0.000000 0.172328 0.169634 -0.164932 -10.582402 112.018210 -0.000000 0.324707 0.467927 -0.415236
0.360000 22.576366 186.722127 -0.000000 0.172335 0.169629 -0.164939 -10.499325 112.019429 -0.000000 0.324706 0.467927 -0.415240
0.365000 22.476633 186.454531 -0.000000 0.172334 0.169614 -0.164943 -10.269812 112.241625 -0.000000 0.324703 0.467929 -0.415241
0.370000 22.336520 186.165918 -0.000000 0.172350 0.169625 -0.164942 -9.933179 112.636925 -0.000000 0.324702 0.467924 -0.415241
0.375000 22.179885 185.880654 -0.000000 0.172347 0.169619 -0.164951 -9.566987 113.090048 -0.000000 0.324708 0.467915 -0.415247
0.380000 22.008212 185.621149 -0.000000 0.172357 0.169622 -0.164940 -9.262222 113.488523 -0.000000 0.324707 0.467925 -0.415243
0.385000 21.872187 185.410614 -0.000000 0.172357 0.169631 -0.164945 -9.037578 113.794409 -0.000000 0.324709 0.467920 -0.415244
0.390000 21.792671 185.285578 -0.000000 0.172353 0.169628 -0.164946 -8.887006 114.039791 -0.000000 0.324723 0.467906 -0.415242
